<svg xmlns="http://www.w3.org/2000/svg" xmlns:xlink="http://www.w3.org/1999/xlink" version="1.2" baseProfile="tiny" x="0px" y="0px" viewBox="0 0 100 125" xml:space="preserve"><path fill="#999" d="M50,5C25.187,5,5,25.187,5,50s20.187,45,45,45s45-20.187,45-45S74.813,5,50,5z M50,90c-22.056,0-40-17.944-40-40  s17.944-40,40-40s40,17.944,40,40S72.056,90,50,90z"/><path fill="#999" d="M70.732,48.232L52.5,66.465V30c0-1.381-1.119-2.5-2.5-2.5s-2.5,1.119-2.5,2.5v36.465L29.268,48.232  c-0.977-0.977-2.559-0.977-3.535,0s-0.977,2.559,0,3.535l22.5,22.5C48.721,74.756,49.36,75,50,75s1.279-0.244,1.768-0.732l22.5-22.5  c0.977-0.977,0.977-2.559,0-3.535S71.709,47.256,70.732,48.232z"/></svg>